# xmcd
#
# Track frame offsets:
# 150
# 19467
# 40515
# 59107
# 74330
# 92572
# 112404
# 131847
# 148257
# 162292
# 181175
# 198634
# 218500
# 236145
# 256747
# 272037
# 292945
#
# Disc length: 4152 seconds
#
#
# Revision: 0
# Processed by: cddbd v1.4PL0 Copyright (c) Steve Scherf et al.
# Submitted via: FreeRIP 2.40 
#
DISCID=0b103611
DTITLE=Various Artist - max4
DYEAR=1998
DGENRE=pop
TTITLE0=celine dion-my  heart will go remix
TTITLE1=savage garden-truely madely deeply
TTITLE2=natalie imbruglia-torn
TTITLE3=n sync-i want u back
TTITLE4=brandy and monica-the boy is mine
TTITLE5=the coors-dreams
TTITLE6=ott-all out of love
TTITLE7=trademark-i'll be the one
TTITLE8=steps-last thing on my mind
TTITLE9=five-when the lights go out
TTITLE10=will smith-dettin jiggy with it
TTITLE11=maria montell-and the story goes
TTITLE12=cleopatra-cleopatra's theme
TTITLE13=eric clapton-my fathers's eyes
TTITLE14=jimmy ray-are u jimmy ray
TTITLE15=ricky martin-the cup of life spanish version
TTITLE16=gil(feat moffats)-if you only knew
EXTD=
EXTT0=
EXTT1=
EXTT2=
EXTT3=
EXTT4=
EXTT5=
EXTT6=
EXTT7=
EXTT8=
EXTT9=
EXTT10=
EXTT11=
EXTT12=
EXTT13=
EXTT14=
EXTT15=
EXTT16=
PLAYORDER=
